<?xml version="1.0" encoding="utf-8"?>
<!-- Generator: Adobe Illustrator 23.0.4, SVG Export Plug-In . SVG Version: 6.00 Build 0)  -->
<svg version="1.1" id="Layer_1" xmlns="http://www.w3.org/2000/svg" xmlns:xlink="http://www.w3.org/1999/xlink" x="0px" y="0px"
	 viewBox="0 0 94.4 100" style="enable-background:new 0 0 94.4 100;" xml:space="preserve">
<style type="text/css">
	.st0{fill:#232323;}
</style>
<title>all</title>
<g>
	<polygon class="st0" points="55.2,44.5 55.2,94.8 68.2,81.9 77.6,100 84.4,96.5 75.3,79 92.8,79 	"/>
	<path class="st0" d="M93.9,53.8c0.1-0.7,0.2-1.3,0.3-2c0.2-1.5,0.2-3,0.2-4.6s-0.1-3-0.2-4.5c-0.1-0.8-0.2-1.5-0.3-2.3
		c-0.1-0.5-0.1-1.1-0.2-1.6l0,0c-3.5-19.3-18.7-34.5-38-38l0,0c-0.7-0.2-1.3-0.2-1.9-0.3s-1.3-0.2-2-0.3c-1.5-0.1-3-0.2-4.5-0.2
		s-3,0.1-4.5,0.2c-0.7,0.1-1.4,0.2-2,0.3s-1.3,0.1-1.9,0.2l0,0c-19.3,3.5-34.5,18.7-38,38l0,0c-0.1,0.6-0.2,1.2-0.2,1.7
		S0.3,42,0.2,42.7c-0.1,1.5-0.2,3-0.2,4.5s0.1,3,0.2,4.5c0.1,0.8,0.2,1.5,0.3,2.3c0.1,0.5,0.1,1.1,0.2,1.7l0,0
		c3.5,19.3,18.7,34.5,38,38l0,0c0.6,0.1,1.2,0.2,1.8,0.2s1.4,0.2,2.2,0.3c1.5,0.1,3,0.2,4.5,0.2h0.1v-11h-0.1
		c-2.1,0-4.1-0.2-6.2-0.6c-1.9-6.1-3.2-12.3-3.8-18.6c3.2,0.2,6.6,0.3,10,0.3h0.1v-6.3h-0.1c-3.8,0-7.3-0.1-10.6-0.3
		c-0.2-3.3-0.4-6.8-0.4-10.6s0.1-7.3,0.3-10.6c3.3-0.2,6.9-0.3,10.6-0.3s7.3,0.1,10.6,0.3c0,0.2,0,0.4,0,0.6c1,0.3,1.9,0.9,2.7,1.6
		l3.9,3.5c-0.1-1.7-0.2-3.4-0.3-5.1c6.4,0.7,12.7,1.9,18.8,3.8c0.4,2,0.5,4.1,0.6,6.2c0,2.1-0.2,4.1-0.5,6.2c-1.5,0.5-3.1,1-4.9,1.4
		l3.7,3.4l0,0l8.7,8c1.5-3.4,2.5-6.9,3.2-10.5l0,0C93.8,55,93.8,54.4,93.9,53.8z M33.9,13.6c-1.5,5.7-2.5,11.4-3.1,17.2
		c-5.8,0.6-11.6,1.6-17.2,3.1C17.3,24.6,24.6,17.3,33.9,13.6L33.9,13.6z M33.9,80.8c-9.3-3.7-16.6-11-20.3-20.3
		C19.3,62,25,63,30.8,63.6C31.4,69.4,32.4,75.2,33.9,80.8L33.9,80.8z M30.3,57.2c-6.3-0.7-12.6-2-18.7-3.8c-0.8-4.1-0.8-8.3,0-12.4
		c6.1-1.9,12.4-3.2,18.7-3.8c-0.2,3.2-0.3,6.6-0.3,10S30.1,54,30.3,57.2z M47.2,29.9c-3.4,0-6.8,0.1-10,0.3c0.7-6.3,2-12.6,3.8-18.7
		c4.1-0.8,8.3-0.8,12.4,0c1.9,6.1,3.1,12.4,3.8,18.7C54,30,50.7,29.9,47.2,29.9z M63.6,30.8C63,25,62,19.2,60.6,13.6
		c9.3,3.7,16.6,11,20.3,20.3C75.2,32.4,69.4,31.4,63.6,30.8z"/>
</g>
</svg>
