<?xml version="1.0" encoding="utf-8"?>
<!-- Generator: Adobe Illustrator 23.0.4, SVG Export Plug-In . SVG Version: 6.00 Build 0)  -->
<svg version="1.1" id="Layer_1" xmlns="http://www.w3.org/2000/svg" xmlns:xlink="http://www.w3.org/1999/xlink" x="0px" y="0px"
	 viewBox="0 0 66.8 66.9" style="enable-background:new 0 0 66.8 66.9;" xml:space="preserve">
<style type="text/css">
	.st0{display:none;}
	.st1{display:inline;}
	.st2{fill:#232323;}
</style>
<g class="st0">
	<rect x="-557.9" y="-509.8" class="st1" width="1566.2" height="1272.1"/>
</g>
<g>
	<path class="st2" d="M26.8,53.6c6.8,0,13.1-2.6,17.8-6.8l19.6,19.6c0.3,0.3,0.7,0.4,1.1,0.4s0.8-0.1,1.1-0.4c0.6-0.6,0.6-1.5,0-2.1
		L46.8,44.7c4.3-4.8,6.9-11,6.9-17.9C53.6,12,41.6,0,26.8,0S0,12,0,26.8S12,53.6,26.8,53.6z M26.8,3C40,3,50.6,13.7,50.6,26.8
		c0,6.2-2.4,11.8-6.3,16.1c-0.4,0-1.5,1.1-1.5,1.5c-4.2,3.9-9.9,6.2-16,6.2C13.7,50.6,3,40,3,26.8S13.7,3,26.8,3z"/>
	<path class="st2" d="M15.2,28.1h10.3v10.3c0,0.7,0.6,1.3,1.3,1.3s1.3-0.6,1.3-1.3V28.1h10.3c0.7,0,1.3-0.6,1.3-1.3
		s-0.6-1.3-1.3-1.3H28.1V15.2c0-0.7-0.6-1.3-1.3-1.3s-1.3,0.6-1.3,1.3v10.3H15.2c-0.7,0-1.3,0.6-1.3,1.3S14.5,28.1,15.2,28.1z"/>
</g>
</svg>
