<?xml version="1.0" encoding="utf-8"?>
<!-- Generator: Adobe Illustrator 24.0.3, SVG Export Plug-In . SVG Version: 6.00 Build 0)  -->
<svg version="1.1" id="Layer_1" xmlns="http://www.w3.org/2000/svg" xmlns:xlink="http://www.w3.org/1999/xlink" x="0px" y="0px"
	 viewBox="0 0 86 76" style="enable-background:new 0 0 86 76;" xml:space="preserve">
<g>
	<g>
		<path d="M22.2,71.4c-0.3,0-0.5-0.2-0.5-0.5V17.4c0-0.3,0.2-0.5,0.5-0.5s0.5,0.2,0.5,0.5v53.5C22.8,71.1,22.5,71.4,22.2,71.4z"/>
	</g>
</g>
<g>
	<g>
		<path d="M62.1,25.7H25.7v-8.9H62L62.1,25.7L62.1,25.7z M26.7,24.7H61v-6.9H26.7V24.7z"/>
	</g>
</g>
<g>
	<g>
		<path d="M85.5,14.9H0.7v-4.4h84.8V14.9z M1.7,13.9h82.8v-2.4H1.7V13.9z"/>
	</g>
</g>
<g>
	<g>
		<path d="M61.7,48.7H25.4V27.8h36.3V48.7z M26.4,47.7h34.3V28.8H26.4V47.7z"/>
	</g>
</g>
<g>
	<g>
		<path d="M61.7,71.8H25.4V51h36.3V71.8z M26.4,70.8h34.3V52H26.4V70.8z"/>
	</g>
</g>
<g>
	<g>
		<path d="M81.3,41.1H65.1V16.8h16.2V41.1z M66.1,40.1h14.2V17.8H66.1V40.1z"/>
	</g>
</g>
<g>
	<g>
		<path d="M81.3,67.8H65.1V43.5h16.2V67.8z M66.1,66.8h14.2V44.5H66.1V66.8z"/>
	</g>
</g>
<g>
	<g>
		<path d="M17.2,19.1H6.1c-0.6,0-1-0.4-1-1s0.4-1,1-1h11.1c0.6,0,1,0.4,1,1S17.8,19.1,17.2,19.1z"/>
	</g>
</g>
<g>
	<g>
		<path d="M16.9,24.6H5.7c-0.3,0-0.5-0.2-0.5-0.5s0.2-0.5,0.5-0.5h11.2c0.3,0,0.5,0.2,0.5,0.5S17.2,24.6,16.9,24.6z"/>
	</g>
</g>
<g>
	<g>
		<path d="M59,22.4h-4.3c-0.3,0-0.5-0.2-0.5-0.5s0.2-0.5,0.5-0.5H59c0.3,0,0.5,0.2,0.5,0.5S59.3,22.4,59,22.4z"/>
	</g>
</g>
<g>
	<g>
		<path d="M53,22.4h-4.3c-0.3,0-0.5-0.2-0.5-0.5s0.2-0.5,0.5-0.5H53c0.3,0,0.5,0.2,0.5,0.5S53.3,22.4,53,22.4z"/>
	</g>
</g>
<g>
	<g>
		<path d="M16.9,28.8H5.7c-0.3,0-0.5-0.2-0.5-0.5s0.2-0.5,0.5-0.5h11.2c0.3,0,0.5,0.2,0.5,0.5S17.2,28.8,16.9,28.8z"/>
	</g>
</g>
<g>
	<g>
		<path d="M16.9,32.8H5.7c-0.3,0-0.5-0.2-0.5-0.5s0.2-0.5,0.5-0.5h11.2c0.3,0,0.5,0.2,0.5,0.5S17.2,32.8,16.9,32.8z"/>
	</g>
</g>
<g>
	<g>
		<path d="M16.9,39.6H5.7c-0.3,0-0.5-0.2-0.5-0.5s0.2-0.5,0.5-0.5h11.2c0.3,0,0.5,0.2,0.5,0.5S17.2,39.6,16.9,39.6z"/>
	</g>
</g>
<g>
	<g>
		<path d="M16.9,43.8H5.7c-0.3,0-0.5-0.2-0.5-0.5s0.2-0.5,0.5-0.5h11.2c0.3,0,0.5,0.2,0.5,0.5S17.2,43.8,16.9,43.8z"/>
	</g>
</g>
<g>
	<g>
		<path d="M16.9,47.8H5.7c-0.3,0-0.5-0.2-0.5-0.5s0.2-0.5,0.5-0.5h11.2c0.3,0,0.5,0.2,0.5,0.5S17.2,47.8,16.9,47.8z"/>
	</g>
</g>
<g>
	<g>
		<path d="M16.9,54.6H5.7c-0.3,0-0.5-0.2-0.5-0.5s0.2-0.5,0.5-0.5h11.2c0.3,0,0.5,0.2,0.5,0.5S17.2,54.6,16.9,54.6z"/>
	</g>
</g>
<g>
	<g>
		<path d="M16.9,58.8H5.7c-0.3,0-0.5-0.2-0.5-0.5s0.2-0.5,0.5-0.5h11.2c0.3,0,0.5,0.2,0.5,0.5S17.2,58.8,16.9,58.8z"/>
	</g>
</g>
<g>
	<g>
		<path d="M16.9,62.8H5.7c-0.3,0-0.5-0.2-0.5-0.5s0.2-0.5,0.5-0.5h11.2c0.3,0,0.5,0.2,0.5,0.5S17.2,62.8,16.9,62.8z"/>
	</g>
</g>
<g>
	<g>
		<path d="M16.3,75.6H5.1c-0.3,0-0.5-0.2-0.5-0.5s0.2-0.5,0.5-0.5h11.2c0.3,0,0.5,0.2,0.5,0.5S16.5,75.6,16.3,75.6z"/>
	</g>
</g>
<g>
	<path d="M86,76H0V10h86V76z M2,74h82V12H2V74z"/>
</g>
<g>
	<g>
		<path d="M86,12H0V2.8C0,1.1,1.8,0,3.4,0h79.2C84.2,0,86,1.1,86,2.8V12z M2,10h82V2.8C84,2.4,83.3,2,82.6,2H3.4C2.7,2,2,2.4,2,2.8
			V10z"/>
	</g>
</g>
<g>
	<g>
		<circle cx="7.2" cy="5.8" r="1.5"/>
	</g>
</g>
<g>
	<g>
		<circle cx="12.2" cy="5.8" r="1.5"/>
	</g>
</g>
<g>
	<g>
		<circle cx="17.2" cy="5.8" r="1.5"/>
	</g>
</g>
<g>
	<g>
		<path d="M47,33.8H31.8c-0.3,0-0.5-0.2-0.5-0.5s0.2-0.5,0.5-0.5H47c0.3,0,0.5,0.2,0.5,0.5S47.3,33.8,47,33.8z"/>
	</g>
</g>
<g>
	<g>
		<path d="M77.1,22.4h-7.6c-0.3,0-0.5-0.2-0.5-0.5s0.2-0.5,0.5-0.5h7.6c0.3,0,0.5,0.2,0.5,0.5S77.3,22.4,77.1,22.4z"/>
	</g>
</g>
<g>
	<g>
		<path d="M77.1,25.4h-7.6c-0.3,0-0.5-0.2-0.5-0.5s0.2-0.5,0.5-0.5h7.6c0.3,0,0.5,0.2,0.5,0.5S77.3,25.4,77.1,25.4z"/>
	</g>
</g>
<g>
	<g>
		<path d="M77.1,31.4h-7.6c-0.3,0-0.5-0.2-0.5-0.5s0.2-0.5,0.5-0.5h7.6c0.3,0,0.5,0.2,0.5,0.5S77.3,31.4,77.1,31.4z"/>
	</g>
</g>
<g>
	<g>
		<path d="M77.1,34.4h-7.6c-0.3,0-0.5-0.2-0.5-0.5s0.2-0.5,0.5-0.5h7.6c0.3,0,0.5,0.2,0.5,0.5S77.3,34.4,77.1,34.4z"/>
	</g>
</g>
<g>
	<g>
		<path d="M77.1,49.4h-7.6c-0.3,0-0.5-0.2-0.5-0.5s0.2-0.5,0.5-0.5h7.6c0.3,0,0.5,0.2,0.5,0.5S77.3,49.4,77.1,49.4z"/>
	</g>
</g>
<g>
	<g>
		<path d="M77.1,52.4h-7.6c-0.3,0-0.5-0.2-0.5-0.5s0.2-0.5,0.5-0.5h7.6c0.3,0,0.5,0.2,0.5,0.5C77.6,52.2,77.3,52.4,77.1,52.4z"/>
	</g>
</g>
<g>
	<g>
		<path d="M77.1,59.4h-7.6c-0.3,0-0.5-0.2-0.5-0.5s0.2-0.5,0.5-0.5h7.6c0.3,0,0.5,0.2,0.5,0.5S77.3,59.4,77.1,59.4z"/>
	</g>
</g>
<g>
	<g>
		<path d="M77.1,62.4h-7.6c-0.3,0-0.5-0.2-0.5-0.5s0.2-0.5,0.5-0.5h7.6c0.3,0,0.5,0.2,0.5,0.5S77.3,62.4,77.1,62.4z"/>
	</g>
</g>
<g>
	<g>
		<path d="M42.1,36.8H31.8c-0.3,0-0.5-0.2-0.5-0.5s0.2-0.5,0.5-0.5h10.4c0.3,0,0.5,0.2,0.5,0.5S42.4,36.8,42.1,36.8z"/>
	</g>
</g>
<g>
	<g>
		<path d="M47,39.6H31.8c-0.3,0-0.5-0.2-0.5-0.5s0.2-0.5,0.5-0.5H47c0.3,0,0.5,0.2,0.5,0.5S47.3,39.6,47,39.6z"/>
	</g>
</g>
<g>
	<g>
		<path d="M42.1,42.6H31.8c-0.3,0-0.5-0.2-0.5-0.5s0.2-0.5,0.5-0.5h10.4c0.3,0,0.5,0.2,0.5,0.5S42.4,42.6,42.1,42.6z"/>
	</g>
</g>
<g>
	<g>
		<polygon points="49.4,71 48.5,70.7 54.1,57.3 61.3,66 60.5,66.6 54.4,59.2 		"/>
	</g>
</g>
<g>
	<g>
		<polygon points="41.2,71.1 40.4,70.6 44.2,63.1 50.3,68 49.7,68.8 44.6,64.6 		"/>
	</g>
</g>
<g>
	<g>
		<path d="M53.5,63.1c-0.1,0-0.1,0-0.2-0.1l-0.8-0.9c-0.1-0.1-0.1-0.3,0-0.4s0.3-0.1,0.4,0l0.6,0.6l0.6-1.3c0-0.1,0.1-0.1,0.2-0.1
			c0.1,0,0.2,0,0.2,0.1l1.3,1.4l0.7-1.3c0.1-0.1,0.2-0.2,0.3-0.1s0.2,0.2,0.1,0.3l-0.8,1.6c0,0.1-0.1,0.1-0.2,0.1
			c-0.1,0-0.2,0-0.2-0.1l-1.3-1.4l-0.6,1.3C53.7,63,53.6,63.1,53.5,63.1L53.5,63.1z"/>
	</g>
</g>
<g>
	<g>
		<path d="M43.2,59.7c-0.8,0-1.5-0.7-1.5-1.5s0.7-1.5,1.5-1.5s1.5,0.7,1.5,1.5S44.1,59.7,43.2,59.7z M43.2,57.2c-0.6,0-1,0.5-1,1
			s0.5,1,1,1s1-0.5,1-1S43.8,57.2,43.2,57.2z"/>
	</g>
</g>
<g>
	<g>
		<path d="M43.2,56.2c-0.1,0-0.2-0.1-0.2-0.2v-1.2c0-0.1,0.1-0.2,0.2-0.2s0.2,0.1,0.2,0.2V56C43.5,56.1,43.4,56.2,43.2,56.2z"/>
	</g>
</g>
<g>
	<g>
		<path d="M43.2,61.7c-0.1,0-0.2-0.1-0.2-0.2v-1.1c0-0.1,0.1-0.2,0.2-0.2s0.2,0.1,0.2,0.2v1.1C43.5,61.6,43.4,61.7,43.2,61.7z"/>
	</g>
</g>
<g>
	<g>
		<path d="M41.1,58.4h-1.2c-0.1,0-0.2-0.1-0.2-0.2s0.1-0.2,0.2-0.2h1.2c0.1,0,0.2,0.1,0.2,0.2S41.2,58.4,41.1,58.4z"/>
	</g>
</g>
<g>
	<g>
		<path d="M46.6,58.4h-1.1c-0.1,0-0.2-0.1-0.2-0.2s0.1-0.2,0.2-0.2h1.1c0.1,0,0.2,0.1,0.2,0.2S46.7,58.4,46.6,58.4z"/>
	</g>
</g>
<g>
	<g>
		<path d="M40.9,60.7c-0.1,0-0.1,0-0.2-0.1c-0.1-0.1-0.1-0.3,0-0.4l0.8-0.8c0.1-0.1,0.3-0.1,0.4,0s0.1,0.3,0,0.4L40.9,60.7
			L40.9,60.7z"/>
	</g>
</g>
<g>
	<g>
		<path d="M44.9,56.7c-0.1,0-0.1,0-0.2-0.1c-0.1-0.1-0.1-0.3,0-0.4l0.8-0.8c0.1-0.1,0.3-0.1,0.4,0c0.1,0.1,0.1,0.3,0,0.4L44.9,56.7
			L44.9,56.7z"/>
	</g>
</g>
<g>
	<g>
		<path d="M45.6,60.7c-0.1,0-0.1,0-0.2-0.1l-0.8-0.8c-0.1-0.1-0.1-0.3,0-0.4s0.3-0.1,0.4,0l0.8,0.8c0.1,0.1,0.1,0.3,0,0.4
			S45.7,60.7,45.6,60.7z"/>
	</g>
</g>
<g>
	<g>
		<path d="M41.6,56.7c-0.1,0-0.1,0-0.2-0.1l-0.8-0.8c-0.1-0.1-0.1-0.3,0-0.4s0.3-0.1,0.4,0l0.8,0.8c0.1,0.1,0.1,0.3,0,0.4
			C41.8,56.7,41.7,56.7,41.6,56.7z"/>
	</g>
</g>
</svg>
